PathFileType	4	(X/Y/Z)	/Users/niels/Desktop/University/Third Semester/Perception and Action/Exam/Gymnastics Motion Tracking/Code for Gym Tracking/Analyzed Data/Webcam_Backflip/id2_2_baseline_Sports2D/id2_2_baseline_Sports2D_px_person00.trc
DataRate	CameraRate	NumFrames	NumMarkers	Units	OrigDataRate	OrigDataStartFrame	OrigNumFrames
29.87551867219917	29.87551867219917	10	22	m	29.87551867219917	210	241
Frame#	Time	Hip			RHip			RKnee			RAnkle			RBigToe			RSmallToe			RHeel			LHip			LKnee			LAnkle			LBigToe			LSmallToe			LHeel			Neck			Head			Nose			RShoulder			RElbow			RWrist			LShoulder			LElbow			LWrist		
		X1	Y1	Z1	X2	Y2	Z2	X3	Y3	Z3	X4	Y4	Z4	X5	Y5	Z5	X6	Y6	Z6	X7	Y7	Z7	X8	Y8	Z8	X9	Y9	Z9	X10	Y10	Z10	X11	Y11	Z11	X12	Y12	Z12	X13	Y13	Z13	X14	Y14	Z14	X15	Y15	Z15	X16	Y16	Z16	X17	Y17	Z17	X18	Y18	Z18	X19	Y19	Z19	X20	Y20	Z20	X21	Y21	Z21	X22	Y22	Z22
210	7.029166666666667	0.8224416776102562	-0.5662149113354672	0.0	0.8161834520097127	-0.5640391405239527	0.0	0.8237525300949152	-0.6751421519712296	0.0	0.7841931902610718	-0.7891871426150727	0.0	0.8168283160329245	-0.8114369617921084	0.0	0.8040621827688738	-0.8135086748074541	0.0	0.7719815433307817	-0.8056945238305724	0.0	0.8318822558202594	-0.5643646344185441	0.0	0.8332866053791878	-0.6735214419022394	0.0	0.80619242882981	-0.7778875055151792	0.0	0.8413208338094305	-0.7978916359287097	0.0	0.838182627663721	-0.794523081818439	0.0	0.7987183229598426	-0.7957553879919574	0.0	0.8173538532220537	-0.40649381207514623	0.0	0.838743380006666	-0.33514771304796015	0.0	0.8545341318648452	-0.37278258773098305	0.0	0.8038353939127976	-0.42836247338838657	0.0	0.7969545104204445	-0.5062689161086268	0.0	0.8225209467226856	-0.5782320674248026	0.0	0.8153187168820512	-0.4283545287543057	0.0	0.8120063721311684	-0.5013631090704468	0.0	0.832997249700706	-0.5661728206978679	0.0
211	7.062638888888889	0.8238628943232059	-0.5618696337868965	0.0	0.8175326422902006	-0.5595560112096002	0.0	0.8238478300506348	-0.6710405267850492	0.0	0.7843485723338183	-0.7855411199404398	0.0	0.8167441439141138	-0.808064859918298	0.0	0.8039996320508827	-0.809970510361724	0.0	0.7720161934989576	-0.8022912191230015	0.0	0.8332475024958599	-0.5600013119384403	0.0	0.8336692527453804	-0.6697386792572332	0.0	0.8064338782781387	-0.7739199795007613	0.0	0.840487300215524	-0.7951489457455096	0.0	0.8378490918768897	-0.7916119467372552	0.0	0.7990790687686461	-0.7922286559091875	0.0	0.8178754783981815	-0.4026810460862979	0.0	0.8395809573910021	-0.33108244631797246	0.0	0.8553414932233071	-0.36899686716271296	0.0	0.8043731930685399	-0.42444471265872935	0.0	0.7970249292074836	-0.5021970631997394	0.0	0.8217868834162141	-0.5746078877851936	0.0	0.8161993650776767	-0.4244788645585483	0.0	0.8127605826844562	-0.4974034462540974	0.0	0.8332886166998841	-0.5621810482835038	0.0
212	7.096111111111111	0.8251414860676413	-0.5581420062281212	0.0	0.8188035679767024	-0.5557268242804863	0.0	0.8236179254596038	-0.667517079383186	0.0	0.7845734260738632	-0.7826057526645772	0.0	0.8169942997569769	-0.8052800431109347	0.0	0.8042256116401347	-0.8071064622560886	0.0	0.7722535386869556	-0.7994517041732173	0.0	0.8345351632970566	-0.5562622278939295	0.0	0.8339389622432802	-0.6664483354576327	0.0	0.806822941611601	-0.7705576928034377	0.0	0.839967845834745	-0.7929562006320706	0.0	0.8377837429743951	-0.7892248687154466	0.0	0.7996706714266977	-0.7891201168868671	0.0	0.8185252910923326	-0.39917937771017303	0.0	0.8404039628666938	-0.32735407755781715	0.0	0.8561267315034036	-0.36560695345123756	0.0	0.8050935122136962	-0.4209311130995172	0.0	0.7972682761193574	-0.4986221791288907	0.0	0.8213961473084826	-0.5713459884104576	0.0	0.8170195604280707	-0.4209444393455916	0.0	0.813385791336769	-0.49387720841483707	0.0	0.833614497834975	-0.5585503056828212	0.0
213	7.129583333333334	0.8262461644826996	-0.5553345543631909	0.0	0.8199611692350589	-0.5527816823211839	0.0	0.823164217085325	-0.6648432117515706	0.0	0.7847840425075178	-0.7804180787237666	0.0	0.8173203212061382	-0.8032309423272184	0.0	0.8045211941474503	-0.8049931061239587	0.0	0.7726090566240862	-0.7972773962789829	0.0	0.8357487314340409	-0.5533825437842574	0.0	0.8341364372656564	-0.6638678989901807	0.0	0.8073826631038982	-0.767994973839314	0.0	0.8398034398000175	-0.7914341000191805	0.0	0.8380521498250383	-0.7874675707116116	0.0	0.8004663931043206	-0.7866132547346317	0.0	0.8192503359955621	-0.39628794871349765	0.0	0.8411982889811084	-0.32426765804443247	0.0	0.856857586275849	-0.362830069250799	0.0	0.8059160029280312	-0.4181043140988195	0.0	0.797662713594226	-0.4958282109667446	0.0	0.8214465119327246	-0.5687111018855412	0.0	0.8177578316856504	-0.41805054581770484	0.0	0.8139016882521904	-0.49102051305093775	0.0	0.8339894416552713	-0.5555835647781093	0.0
214	7.163055555555555	0.8271409044903226	-0.5536655149161103	0.0	0.8209820556227141	-0.5509187955292737	0.0	0.8225821388122838	-0.663171573252084	0.0	0.784908334132041	-0.7789873691831739	0.0	0.8174866279796145	-0.8019791927520725	0.0	0.8046821774133129	-0.8036734870199144	0.0	0.7729788916200769	-0.7958237045737592	0.0	0.8368655019669484	-0.5515589236953433	0.0	0.8342952979493502	-0.6621427808689743	0.0	0.8081119628195362	-0.7663435544697565	0.0	0.8399715453074319	-0.7906038054681677	0.0	0.8386496646371543	-0.7863742505022843	0.0	0.8014236630096561	-0.7848407587310056	0.0	0.8200245918866549	-0.39424987403529577	0.0	0.8419634261747803	-0.3220297568351273	0.0	0.8575532720477664	-0.36080572606078504	0.0	0.806773333999928	-0.4161840645903988	0.0	0.798205056975913	-0.49402640443836615	0.0	0.8219862926373493	-0.5669613409388499	0.0	0.818425048825203	-0.41603531603654753	0.0	0.8143698013993257	-0.4890214157559949	0.0	0.8344503559742604	-0.5535527815594697	0.0
215	7.196527777777778	0.827796508683228	-0.5531967409094516	0.0	0.8218540079705999	-0.5502576897970598	0.0	0.8219609963263388	-0.6625087380437027	0.0	0.7849446885681747	-0.7783446233068285	0.0	0.8173590014700404	-0.8015260663805254	0.0	0.8045626447407123	-0.8031626964830755	0.0	0.7732899411790525	-0.7951132481803024	0.0	0.8378301793410896	-0.5508915462240348	0.0	0.834420998694959	-0.6613200761178673	0.0	0.8089653967648145	-0.7656332222453739	0.0	0.8403840501568559	-0.7904066286910661	0.0	0.8394723556364607	-0.78594936394663	0.0	0.8024583996638559	-0.7838783206438122	0.0	0.8208562184273044	-0.39320280499418603	0.0	0.8427108924979614	-0.32075229823997414	0.0	0.8582450531315409	-0.3596294070810766	0.0	0.8076186903432777	-0.41527409962554795	0.0	0.798900232114731	-0.4933173234222256	0.0	0.8229804833641772	-0.5662797847502355	0.0	0.8190656803749068	-0.4150328100047961	0.0	0.814842848710265	-0.4879938265083237	0.0	0.8350209214798264	-0.5525987100266744	0.0
216	7.23	0.828223227703699	-0.5538586572669016	0.0	0.8225829162848579	-0.5507894415340631	0.0	0.8213907304325622	-0.6627451101887839	0.0	0.7849433387420343	-0.7785123076207124	0.0	0.8169004108276898	-0.801846174004859	0.0	0.8041031776208215	-0.8034414637750185	0.0	0.7735092154344062	-0.7951500072637836	0.0	0.8385707636503192	-0.5513635931889375	0.0	0.8344808984674151	-0.6613668690144805	0.0	0.8098590873348649	-0.7658511087537472	0.0	0.8409201864852126	-0.7907852700140053	0.0	0.8403436675807362	-0.7862025927188689	0.0	0.803463611924166	-0.7837898251776044	0.0	0.8217501726625774	-0.39316112683721977	0.0	0.8434349437555031	-0.32048411786449904	0.0	0.8589451898324605	-0.35937713446794306	0.0	0.8084431319313121	-0.4153505465088404	0.0	0.7997411810917777	-0.49368286656234106	0.0	0.8243020025143174	-0.5667039415995248	0.0	0.8197183851910965	-0.4150582824651697	0.0	0.8153414513526731	-0.4879844748893285	0.0	0.8356639996934415	-0.5527097035060662	0.0
217	7.263472222222222	0.828483024763789	-0.555510632799413	0.0	0.8231826927544627	-0.5523617888198745	0.0	0.8209328706596122	-0.6637348146170715	0.0	0.7849395574177455	-0.7794495833608669	0.0	0.8161507834135715	-0.8028791377098041	0.0	0.803358815548475	-0.8044408176147416	0.0	0.7736355285479464	-0.795917459571756	0.0	0.8390353708525782	-0.5528454399436105	0.0	0.8344299928843693	-0.6622195956390119	0.0	0.810702395871619	-0.7669839271843684	0.0	0.8414801036622451	-0.7917327285837593	0.0	0.8410861793377837	-0.787162032376781	0.0	0.8043606742980653	-0.7846440071506133	0.0	0.8226879385228433	-0.3940364564518615	0.0	0.8441147298154769	-0.3212127031656955	0.0	0.8596620710364017	-0.36008151553805784	0.0	0.8092672363668151	-0.41631990524046253	0.0	0.8007070760685111	-0.4950320253999817	0.0	0.8257811532255005	-0.5680979595701434	0.0	0.8203743314194427	-0.4160273849183928	0.0	0.8158594934861805	-0.4889987355441552	0.0	0.8362982697060486	-0.55381101939894	0.0
218	7.296944444444445	0.8286618932844835	-0.5579303338000771	0.0	0.8236655397501969	-0.5546917101274627	0.0	0.8205769117783629	-0.6653483429249932	0.0	0.7849194684533244	-0.7810464872175119	0.0	0.8152502797730338	-0.8045242352800055	0.0	0.8025164603425167	-0.8060453444536834	0.0	0.773677045482478	-0.797347800548236	0.0	0.8392263275871373	-0.5550986421680031	0.0	0.8342424730959842	-0.6638107429728859	0.0	0.8114153856215567	-0.768995975168147	0.0	0.8420259477932669	-0.7932675873110988	0.0	0.8416135473042076	-0.7888496596212444	0.0	0.8051109472908603	-0.7864423361915325	0.0	0.8236255853261821	-0.39567151679398477	0.0	0.8447331183279224	-0.32285357833823664	0.0	0.8604263285608968	-0.3616765198624626	0.0	0.8101088442747095	-0.41807488565727224	0.0	0.8017630180296281	-0.4972337721686666	0.0	0.8272978247646159	-0.5702056925721949	0.0	0.8209819509745572	-0.4177857531517443	0.0	0.8163596872718806	-0.4909857376333656	0.0	0.8368511566787575	-0.5558453238219945	0.0
219	7.330416666666666	0.8288279008532108	-0.5607964715435216	0.0	0.8240479010722584	-0.557435362614715	0.0	0.8202442361761259	-0.6674525650973849	0.0	0.7848503473045086	-0.783158442659394	0.0	0.8144450473548749	-0.8066667572941433	0.0	0.8018385415515173	-0.808127404432799	0.0	0.7736174787583993	-0.7993030950159596	0.0	0.8392027573608543	-0.5578062855610297	0.0	0.8339196513629136	-0.6660497298809414	0.0	0.8119293647985673	-0.7717657747667489	0.0	0.8425895688107701	-0.795391411832272	0.0	0.8419791203539976	-0.7912344116311014	0.0	0.8057006554436537	-0.7890396787471532	0.0	0.8244965775525784	-0.39787144937136554	0.0	0.8452622715736413	-0.325254312813345	0.0	0.8612720175374414	-0.3639853897969073	0.0	0.8109605452292336	-0.4204791967477665	0.0	0.8028481883299098	-0.5000860651215246	0.0	0.8288002802491365	-0.5727387903618958	0.0	0.8215166053392821	-0.4201324255181995	0.0	0.8168127444188716	-0.4937879876311737	0.0	0.8373060980264265	-0.5587511166981347	0.0
